<?xml version="1.0" encoding="UTF-8" standalone="no"?>
<!-- Created with Inkscape (http://www.inkscape.org/) -->

<svg
   version="1.1"
   id="svg2"
   width="666.66669"
   height="666.66669"
   viewBox="0 0 666.66669 666.66669"
   sodipodi:docname="4951472.svg"
   inkscape:version="1.2 (dc2aedaf03, 2022-05-15)"
   xmlns:inkscape="http://www.inkscape.org/namespaces/inkscape"
   xmlns:sodipodi="http://sodipodi.sourceforge.net/DTD/sodipodi-0.dtd"
   xmlns="http://www.w3.org/2000/svg"
   xmlns:svg="http://www.w3.org/2000/svg">
  <defs
     id="defs6">
    <clipPath
       clipPathUnits="userSpaceOnUse"
       id="clipPath20">
      <path
         d="M 0,500 H 500 V 0 H 0 Z"
         id="path18" />
    </clipPath>
    <clipPath
       clipPathUnits="userSpaceOnUse"
       id="clipPath52">
      <path
         d="M 0,500 H 500 V 0 H 0 Z"
         id="path50" />
    </clipPath>
    <clipPath
       clipPathUnits="userSpaceOnUse"
       id="clipPath228">
      <path
         d="M 0,500 H 500 V 0 H 0 Z"
         id="path226" />
    </clipPath>
    <clipPath
       clipPathUnits="userSpaceOnUse"
       id="clipPath1862">
      <path
         d="m -96.6535,242.3358 h 500 v -500 h -500 z"
         id="path1864"
         style="stroke-width:0.999998" />
    </clipPath>
    <clipPath
       clipPathUnits="userSpaceOnUse"
       id="clipPath1866">
      <path
         d="m -98.4923,253.8525 h 500 v -500 h -500 z"
         id="path1868"
         style="stroke-width:0.999998" />
    </clipPath>
    <clipPath
       clipPathUnits="userSpaceOnUse"
       id="clipPath1870">
      <path
         d="m -118.6487,230.0492 h 500 v -500 h -500 z"
         id="path1872"
         style="stroke-width:0.999998" />
    </clipPath>
    <clipPath
       clipPathUnits="userSpaceOnUse"
       id="clipPath1874">
      <path
         d="m -71.9666,231.0674 h 500 v -500 h -500 z"
         id="path1876"
         style="stroke-width:0.999998" />
    </clipPath>
    <clipPath
       clipPathUnits="userSpaceOnUse"
       id="clipPath1878">
      <path
         d="m -206.2541,433.4319 h 500 v -500 h -500 z"
         id="path1880"
         style="stroke-width:0.999998" />
    </clipPath>
    <clipPath
       clipPathUnits="userSpaceOnUse"
       id="clipPath1882">
      <path
         d="m -123.8473,433.4319 h 500 v -500 h -500 z"
         id="path1884"
         style="stroke-width:0.999998" />
    </clipPath>
    <clipPath
       clipPathUnits="userSpaceOnUse"
       id="clipPath1886">
      <path
         d="m -152.904,379.0978 h 500 v -500 h -500 z"
         id="path1888"
         style="stroke-width:0.999998" />
    </clipPath>
    <clipPath
       clipPathUnits="userSpaceOnUse"
       id="clipPath1890">
      <path
         d="m -157.2991,406.6262 h 500 v -500 h -500 z"
         id="path1892"
         style="stroke-width:0.999998" />
    </clipPath>
    <clipPath
       clipPathUnits="userSpaceOnUse"
       id="clipPath1894">
      <path
         d="m -205.4791,349.7293 h 500 v -500 h -500 z"
         id="path1896"
         style="stroke-width:0.999998" />
    </clipPath>
    <clipPath
       clipPathUnits="userSpaceOnUse"
       id="clipPath1898">
      <path
         d="m -93.895,352.163 h 500 v -500 h -500 z"
         id="path1900"
         style="stroke-width:0.999998" />
    </clipPath>
    <clipPath
       clipPathUnits="userSpaceOnUse"
       id="clipPath1940">
      <path
         d="m -370.4849,354.8612 h 500 v -500 h -500 z"
         id="path1942"
         style="stroke-width:0.999998" />
    </clipPath>
    <clipPath
       clipPathUnits="userSpaceOnUse"
       id="clipPath1944">
      <path
         d="m -332.9196,354.8612 h 500 v -500 h -500 z"
         id="path1946"
         style="stroke-width:0.999998" />
    </clipPath>
    <clipPath
       clipPathUnits="userSpaceOnUse"
       id="clipPath1948">
      <path
         d="m -356.7057,370.1789 h 500 v -500 h -500 z"
         id="path1950"
         style="stroke-width:0.999998" />
    </clipPath>
    <clipPath
       clipPathUnits="userSpaceOnUse"
       id="clipPath1952">
      <path
         d="m -351.7022,406.7799 h 500 v -500 h -500 z"
         id="path1954"
         style="stroke-width:0.999998" />
    </clipPath>
    <clipPath
       clipPathUnits="userSpaceOnUse"
       id="clipPath1956">
      <path
         d="m -300.8522,234.8061 h 500 v -500 h -500 z"
         id="path1958"
         style="stroke-width:0.999998" />
    </clipPath>
    <clipPath
       clipPathUnits="userSpaceOnUse"
       id="clipPath1960">
      <path
         d="m -298.759,244.2946 h 500 v -500 h -500 z"
         id="path1962"
         style="stroke-width:0.999998" />
    </clipPath>
    <clipPath
       clipPathUnits="userSpaceOnUse"
       id="clipPath1964">
      <path
         d="m -321.0199,235.2039 h 500 v -500 h -500 z"
         id="path1966"
         style="stroke-width:0.999998" />
    </clipPath>
    <clipPath
       clipPathUnits="userSpaceOnUse"
       id="clipPath1968">
      <path
         d="m -276.498,235.2039 h 500 v -500 h -500 z"
         id="path1970"
         style="stroke-width:0.999998" />
    </clipPath>
  </defs>
  <sodipodi:namedview
     id="namedview4"
     pagecolor="#505050"
     bordercolor="#eeeeee"
     borderopacity="1"
     inkscape:showpageshadow="0"
     inkscape:pageopacity="0"
     inkscape:pagecheckerboard="0"
     inkscape:deskcolor="#505050"
     showgrid="false"
     inkscape:zoom="1.575"
     inkscape:cx="420.31747"
     inkscape:cy="201.26985"
     inkscape:window-width="1360"
     inkscape:window-height="705"
     inkscape:window-x="-8"
     inkscape:window-y="-8"
     inkscape:window-maximized="1"
     inkscape:current-layer="g10">
    <inkscape:page
       x="0"
       y="0"
       id="page8"
       width="666.66669"
       height="666.66669" />
  </sodipodi:namedview>
  <g
     id="g10"
     inkscape:groupmode="layer"
     inkscape:label="Page 1"
     transform="matrix(1.3333333,0,0,-1.3333333,0,666.66667)">
    <g
       id="g14"
       transform="translate(569.52384,-4.761905)">
      <g
         id="g16"
         clip-path="url(#clipPath20)">
        <g
           id="g22"
           transform="translate(298.0934,383.993)">
          <path
             d="m 0,0 -2.161,0.591 v 0.526 c 0,0.485 -0.393,0.878 -0.878,0.878 H -3.573 V 3.591 L -0.682,2.807 C -0.455,2.746 -0.228,2.69 0,2.638 Z m 45.149,-15.563 -7.001,2.369 -1.09,-0.492 -0.016,-0.079 v -7.177 l -1.701,7.696 -27.791,9.342 v 0.059 l -5.399,1.997 5.982,-0.827 v 1.944 c 0,0.337 -0.255,0.611 -0.583,0.646 v 2.442 l 10.889,0.754 c 1.855,0.128 3.582,0.99 4.8,2.395 H 7.55 V 6.46 c 0,0.361 -0.293,0.653 -0.654,0.653 H 6.499 V 8.302 L 8.652,7.718 c 1.478,-0.4 3.012,-0.551 4.54,-0.445 l 9.699,0.672 c 1.381,0.095 2.667,0.737 3.574,1.783 H 6.499 v 0.382 c 0,0.451 -0.366,0.817 -0.817,0.817 H 1.868 c -0.451,0 -0.817,-0.366 -0.817,-0.817 V 9.728 h -19.966 c 0.907,-1.046 2.193,-1.688 3.574,-1.783 l 9.699,-0.672 c 1.528,-0.106 3.062,0.045 4.54,0.445 L 1.051,8.302 V 7.113 H 0.654 C 0.293,7.113 0,6.821 0,6.46 V 5.506 h -3.573 v 0.512 c 0,0.606 -0.491,1.098 -1.097,1.098 h -5.121 c -0.606,0 -1.098,-0.492 -1.098,-1.098 V 5.506 H -37.7 c 1.217,-1.405 2.944,-2.267 4.799,-2.395 l 13.025,-0.902 c 2.051,-0.142 4.112,0.06 6.096,0.598 l 2.891,0.784 V 1.995 h -0.533 c -0.485,0 -0.878,-0.393 -0.878,-0.878 v -8.788 c -0.44,-0.048 -0.783,-0.416 -0.783,-0.869 v -2.66 c 0,-0.452 0.343,-0.821 0.783,-0.868 v -1.593 c 0,-0.484 0.393,-0.878 0.878,-0.878 h 0.991 l 1.438,-23.183 c 0.035,-0.458 0.416,-0.812 0.876,-0.812 h 1.773 c 0.459,0 0.841,0.354 0.875,0.812 l 1.438,23.183 h 0.992 c 0.485,0 0.878,0.394 0.878,0.878 v 1.593 c 0.439,0.047 0.783,0.416 0.783,0.868 v 2.66 c 0,0.069 -0.01,0.135 -0.025,0.2 l 3.022,-0.81 0.844,-14.433 c 0.026,-0.341 0.31,-0.605 0.652,-0.605 h 1.32 c 0.342,0 0.627,0.264 0.652,0.605 L 5.829,-10.891 3.083,-8.597 6.045,-9.905 6.121,-10 36.809,-22.488 v -0.09 l 1.227,-1.591 5.43,-2.148 1.63,1.63 h 1.223 v 8.184 l -1.17,0.27 z"
             style="fill:#000000;fill-opacity:1;fill-rule:nonzero;stroke:none"
             id="path24" />
        </g>
        <g
           id="g26"
           transform="translate(409.6775,386.4267)">
          <path
             d="m 0,0 h -0.534 c -0.484,0 -0.878,-0.393 -0.878,-0.878 v -0.525 l -2.161,-0.592 v 2.638 c 0.228,0.052 0.455,0.108 0.682,0.169 L 0,1.596 Z m 7.316,3.512 v 0.512 c 0,0.606 -0.492,1.097 -1.098,1.097 H 1.097 C 0.491,5.121 0,4.63 0,4.024 V 3.512 h -3.573 v 0.953 c 0,0.361 -0.293,0.654 -0.654,0.654 H -4.624 V 6.307 L -2.471,5.724 C -0.993,5.323 0.541,5.173 2.069,5.279 l 9.699,0.671 c 1.381,0.096 2.667,0.737 3.574,1.784 H -4.624 v 0.381 c 0,0.451 -0.366,0.817 -0.817,0.817 h -3.814 c -0.451,0 -0.817,-0.366 -0.817,-0.817 V 7.734 h -19.966 c 0.907,-1.047 2.193,-1.688 3.574,-1.784 l 9.699,-0.671 c 1.528,-0.106 3.062,0.044 4.54,0.445 l 2.153,0.583 V 5.119 h -0.397 c -0.361,0 -0.654,-0.293 -0.654,-0.654 V 3.512 h -15.689 c 1.218,-1.405 2.945,-2.267 4.8,-2.396 l 10.889,-0.754 v -2.441 c -0.327,-0.036 -0.583,-0.31 -0.583,-0.647 v -1.981 c 0,-0.146 0.054,-0.275 0.135,-0.383 l 5.847,0.808 -5.557,-2.055 -0.813,-0.034 -26.806,-9.244 -1.715,-7.761 v 7.177 l -0.016,0.079 -1.09,0.493 -7.001,-2.369 v -0.671 l -1.17,-0.27 v -8.184 h 1.223 l 1.63,-1.629 5.43,2.148 1.227,1.59 v 0.137 l 30.929,12.855 0.014,-0.24 2.783,1.229 -2.722,-2.273 0.718,-12.274 c 0.025,-0.341 0.31,-0.605 0.652,-0.605 h 1.32 c 0.342,0 0.626,0.264 0.652,0.605 l 0.844,14.433 3.022,0.81 c -0.015,-0.064 -0.025,-0.131 -0.025,-0.199 v -2.661 c 0,-0.452 0.344,-0.82 0.783,-0.868 v -1.592 c 0,-0.485 0.394,-0.878 0.878,-0.878 h 0.992 l 1.438,-23.184 c 0.034,-0.457 0.416,-0.811 0.875,-0.811 h 1.774 c 0.459,0 0.84,0.354 0.875,0.811 l 1.438,23.184 h 0.991 c 0.485,0 0.878,0.393 0.878,0.878 v 1.592 c 0.44,0.048 0.783,0.416 0.783,0.868 v 2.661 c 0,0.452 -0.343,0.82 -0.783,0.868 v 8.788 C 8.727,-0.393 8.334,0 7.849,0 H 7.316 v 1.596 l 2.891,-0.784 c 1.984,-0.537 4.045,-0.739 6.096,-0.597 l 13.025,0.901 c 1.855,0.129 3.582,0.991 4.799,2.396 z"
             style="fill:#000000;fill-opacity:1;fill-rule:nonzero;stroke:none"
             id="path28" />
        </g>
        <g
           id="g30"
           transform="translate(361.4975,329.5298)">
          <path
             d="m 0,0 c 0.117,-0.454 -0.225,-0.896 -0.694,-0.896 h -3.745 c 0.001,0.006 0.001,0.013 0.001,0.02 l 2.58,2.58 0.119,0.118 0.53,2.85 z m -9.399,-3.501 c -1.6,0 -2.897,1.297 -2.897,2.897 0,1.6 1.297,2.898 2.897,2.898 1.601,0 2.898,-1.298 2.898,-2.898 0,-1.6 -1.297,-2.897 -2.898,-2.897 m -8.704,2.605 c -0.469,0 -0.811,0.442 -0.694,0.896 l 1.209,4.672 0.53,-2.85 0.119,-0.118 2.58,-2.58 c 0,-0.007 0,-0.014 10e-4,-0.02 z M 1.952,21.648 -4.83,11.537 c -0.122,-0.183 -0.327,-0.292 -0.546,-0.292 h -8.045 c -0.219,0 -0.424,0.109 -0.546,0.292 l -6.782,10.111 2.357,-12.662 c -1.04,-3.747 -2.694,-9.59 -2.694,-9.59 v -0.599 c 0,-0.8 0.649,-1.449 1.449,-1.449 h 5.709 c 0.781,-1.724 2.513,-2.926 4.529,-2.926 2.017,0 3.749,1.202 4.53,2.926 H 0.84 c 0.8,0 1.449,0.649 1.449,1.449 v 0.599 c 0,0 -1.654,5.843 -2.694,9.59 z"
             style="fill:#000000;fill-opacity:1;fill-rule:nonzero;stroke:none"
             id="path32" />
        </g>
        <g
           id="g34"
           transform="translate(357.1024,357.0582)">
          <path
             d="m 0,0 c 0,-0.523 -0.428,-0.951 -0.951,-0.951 -0.523,0 -0.951,0.428 -0.951,0.951 v 6.624 c 0,0.523 0.428,0.951 0.951,0.951 C -0.428,7.575 0,7.147 0,6.624 Z m -4.052,0 c 0,-0.523 -0.428,-0.951 -0.951,-0.951 -0.524,0 -0.952,0.428 -0.952,0.951 v 6.624 c 0,0.523 0.428,0.951 0.952,0.951 0.523,0 0.951,-0.428 0.951,-0.951 z m -4.053,0 c 0,-0.523 -0.428,-0.951 -0.951,-0.951 -0.523,0 -0.951,0.428 -0.951,0.951 v 6.624 c 0,0.523 0.428,0.951 0.951,0.951 0.523,0 0.951,-0.428 0.951,-0.951 z m 13.504,10.163 1.238,2.094 v 0.15 l -4.24,5.108 -2.185,-4.383 c 0,0 0.832,3.019 1.334,4.823 h -13.099 c 0.502,-1.804 1.334,-4.823 1.334,-4.823 l -2.185,4.383 -4.24,-5.108 v -0.15 l 1.238,-2.094 c 0.168,-0.165 0.263,-0.391 0.263,-0.627 V 4.089 c 0,-0.236 -0.095,-0.462 -0.263,-0.627 L -16.38,1.63 c -0.169,-0.165 -0.264,-0.391 -0.264,-0.627 v -3.329 l 4.205,1.223 -4.205,-1.936 v -0.044 l 7.66,-11.423 1.483,5.794 -0.682,-6.254 h 6.359 l -0.682,6.254 1.483,-5.794 7.66,11.423 v 0.044 l -4.205,1.936 4.205,-1.223 v 3.329 c 0,0.236 -0.095,0.462 -0.263,0.627 L 5.4,3.462 C 5.231,3.627 5.136,3.853 5.136,4.089 v 5.447 c 0,0.236 0.095,0.462 0.263,0.627"
             style="fill:#000000;fill-opacity:1;fill-rule:nonzero;stroke:none"
             id="path36" />
        </g>
      </g>
    </g>
    <text
       xml:space="preserve"
       transform="scale(1,-1)"
       style="font-variant:normal;font-weight:900;font-stretch:normal;font-size:26.433px;font-family:'Montserrat Black';-inkscape-font-specification:Montserrat-Black;writing-mode:lr-tb;fill:#f15a24;fill-opacity:1;fill-rule:nonzero;stroke:none"
       id="text40"
       x="847.59906"
       y="-410.07788"><tspan
         x="847.59906 868.71899 877.49475 896.65869 916.72131 935.88525 957.03168 977.67584"
         y="-410.07788"
         sodipodi:role="line"
         id="tspan38">AIRDRONE</tspan></text>
    <text
       xml:space="preserve"
       transform="scale(1,-1)"
       style="font-variant:normal;font-weight:normal;font-stretch:normal;font-size:7.9299px;font-family:Montserrat;-inkscape-font-specification:Montserrat-Regular;writing-mode:lr-tb;fill:#000000;fill-opacity:1;fill-rule:nonzero;stroke:none"
       id="text44"
       x="883.61853"
       y="-398.18781"><tspan
         x="883.61853 888.97119 893.99878 899.84314 903.03094 910.10443 916.83691 919.67578 925.40118 931.39618 937.85907 944.12366 947.31152 953.63165"
         y="-398.18781"
         sodipodi:role="line"
         id="tspan42">FLYING SERVICE</tspan></text>
    <g
       id="g46"
       transform="translate(569.52384,-4.761905)">
      <g
         id="g48"
         clip-path="url(#clipPath52)">
        <g
           id="g54"
           transform="translate(94.6904,374.1054)">
          <path
             d="m 0,0 h 2.223 24.235 l -2.03,7.189 H 3.41 -0.384 l 4.053,0.598 0.033,0.075 c 0.03,0.071 0.051,0.145 0.06,0.221 L 3.931,9.478 C 4.86,9.369 5.797,9.349 6.732,9.422 l 11.481,0.902 c 1.635,0.128 3.157,0.99 4.23,2.395 H 6.09 v 4.914 c 0,0.34 -0.276,0.616 -0.616,0.616 H 5.065 v 0.967 l 2.486,-0.765 c 1.229,-0.377 2.504,-0.519 3.773,-0.419 l 8.06,0.633 c 1.148,0.09 2.216,0.695 2.97,1.681 H 5.065 v 0.291 c 0,0.341 -0.276,0.617 -0.616,0.617 h -6.97 c -0.341,0 -0.616,-0.276 -0.616,-0.617 v -0.291 h -17.289 c 0.753,-0.986 1.822,-1.591 2.97,-1.681 l 8.06,-0.633 c 1.269,-0.1 2.544,0.042 3.772,0.419 l 2.487,0.765 v -0.967 h -0.409 c -0.341,0 -0.617,-0.276 -0.617,-0.616 v -3.622 h -8.827 c -0.485,0 -0.878,-0.393 -0.878,-0.878 v -0.414 h -24.628 c 1.074,-1.405 2.596,-2.267 4.231,-2.395 l 11.481,-0.902 c 1.808,-0.142 3.625,0.06 5.374,0.598 l 3.542,1.089 V 9.732 h -0.583 c -0.485,0 -0.878,-0.393 -0.878,-0.878 V -0.73 c 0,-0.485 0.393,-0.878 0.878,-0.878 h 2.057 l 0.382,-3.142 c 0.013,-0.108 0.042,-0.214 0.086,-0.314 l 2.012,-4.638 c 0.062,-0.142 0.094,-0.296 0.094,-0.451 v -38.868 c 0,-0.626 0.507,-1.133 1.133,-1.133 h 0.661 0.661 c 0.626,0 1.133,0.507 1.133,1.133 v 38.868 c 0,0.155 0.032,0.309 0.094,0.451 l 2.012,4.638 c 0.044,0.1 0.072,0.206 0.086,0.314 l 0.382,3.142 h 2.057 c 0.484,0 0.877,0.393 0.877,0.878 V 0 l 0.45,3.284 v -3.2 L -0.296,-0.001 V -28.94 c 0,-0.44 0.356,-0.796 0.796,-0.796 h 0.464 0.464 c 0.439,0 0.795,0.356 0.795,0.796 v 28.365 z"
             style="fill:#000000;fill-opacity:1;fill-rule:nonzero;stroke:none"
             id="path56" />
        </g>
        <g
           id="g58"
           transform="translate(201.1107,374.1054)">
          <path
             d="m 0,0 h -2.223 -24.235 l 2.03,7.189 H -3.41 0.384 l -4.053,0.598 -0.033,0.075 c -0.03,0.071 -0.051,0.145 -0.06,0.221 L -3.931,9.478 C -4.86,9.369 -5.797,9.349 -6.731,9.422 l -11.482,0.902 c -1.635,0.128 -3.157,0.99 -4.23,2.395 H -6.09 v 4.914 c 0,0.34 0.276,0.616 0.616,0.616 h 0.409 v 0.967 l -2.486,-0.765 c -1.229,-0.377 -2.504,-0.519 -3.773,-0.419 l -8.06,0.633 c -1.148,0.09 -2.216,0.695 -2.97,1.681 h 17.289 v 0.291 c 0,0.341 0.276,0.617 0.616,0.617 h 6.97 c 0.341,0 0.616,-0.276 0.616,-0.617 v -0.291 h 17.289 c -0.753,-0.986 -1.822,-1.591 -2.97,-1.681 l -8.06,-0.633 c -1.269,-0.1 -2.544,0.042 -3.772,0.419 l -2.487,0.765 v -0.967 h 0.409 c 0.341,0 0.617,-0.276 0.617,-0.616 v -3.622 h 8.827 c 0.485,0 0.878,-0.393 0.878,-0.878 V 12.719 H 38.496 C 37.422,11.314 35.9,10.452 34.265,10.324 L 22.784,9.422 C 20.976,9.28 19.159,9.482 17.41,10.02 l -3.542,1.089 V 9.732 h 0.583 c 0.485,0 0.878,-0.393 0.878,-0.878 V -0.73 c 0,-0.485 -0.393,-0.878 -0.878,-0.878 H 12.394 L 12.012,-4.75 C 11.999,-4.858 11.97,-4.964 11.926,-5.064 L 9.914,-9.702 C 9.852,-9.844 9.82,-9.998 9.82,-10.153 v -38.868 c 0,-0.626 -0.507,-1.133 -1.133,-1.133 H 8.026 7.365 c -0.626,0 -1.133,0.507 -1.133,1.133 v 38.868 c 0,0.155 -0.032,0.309 -0.094,0.451 L 4.126,-5.064 C 4.082,-4.964 4.054,-4.858 4.04,-4.75 L 3.658,-1.608 H 1.601 c -0.484,0 -0.877,0.393 -0.877,0.878 V 0 l -0.45,3.284 v -3.2 L 0.296,-0.001 V -28.94 c 0,-0.44 -0.356,-0.796 -0.796,-0.796 h -0.464 -0.464 c -0.439,0 -0.795,0.356 -0.795,0.796 v 28.365 z"
             style="fill:#000000;fill-opacity:1;fill-rule:nonzero;stroke:none"
             id="path60" />
        </g>
        <g
           id="g62"
           transform="translate(147.9006,352.3761)">
          <path
             d="m 0,0 c -2.315,0 -4.192,1.877 -4.192,4.192 0,2.315 1.877,4.192 4.192,4.192 2.315,0 4.192,-1.877 4.192,-4.192 C 4.192,1.877 2.315,0 0,0 m -11.513,13.089 1.892,-8.897 h 2.424 v 0 c 0,-3.975 3.222,-7.197 7.197,-7.197 3.975,0 7.197,3.222 7.197,7.197 v 0 h 2.424 l 1.892,8.897 z"
             style="fill:#000000;fill-opacity:1;fill-rule:nonzero;stroke:none"
             id="path64" />
        </g>
        <g
           id="g66"
           transform="translate(152.9041,375.0564)">
          <path
             d="m 0,0 c 0,-0.523 -0.428,-0.951 -0.951,-0.951 -0.523,0 -0.951,0.428 -0.951,0.951 v 6.624 c 0,0.523 0.428,0.951 0.951,0.951 C -0.428,7.575 0,7.147 0,6.624 Z m -4.052,0 c 0,-0.523 -0.428,-0.951 -0.952,-0.951 -0.523,0 -0.951,0.428 -0.951,0.951 v 6.624 c 0,0.523 0.428,0.951 0.951,0.951 0.524,0 0.952,-0.428 0.952,-0.951 z m -4.053,0 c 0,-0.523 -0.428,-0.951 -0.951,-0.951 -0.523,0 -0.951,0.428 -0.951,0.951 v 6.624 c 0,0.523 0.428,0.951 0.951,0.951 0.523,0 0.951,-0.428 0.951,-0.951 z m 28.766,7.714 -4.785,1.323 -5.711,5.301 H 9.167 L 4.36,7.575 l 3.702,6.763 0.003,0.007 -1.858,2.282 h -22.421 l -1.858,-2.282 0.002,-0.007 3.703,-6.763 -4.807,6.763 h -0.998 l -5.711,-5.301 -4.785,-1.323 -1.461,-1.461 v -7.218 l 1.477,-1.477 7.981,-1.397 5.78,-4.332 h 2.433 l 0.482,4.798 0.721,-4.798 -0.006,-0.01 0.004,-0.02 H 3.25 l 0.004,0.02 -0.006,0.01 0.721,4.798 0.482,-4.798 h 2.433 l 5.78,4.332 7.981,1.397 1.477,1.477 v 7.218 z"
             style="fill:#000000;fill-opacity:1;fill-rule:nonzero;stroke:none"
             id="path68" />
        </g>
      </g>
    </g>
    <text
       xml:space="preserve"
       transform="scale(1,-1)"
       style="font-variant:normal;font-weight:900;font-stretch:normal;font-size:26.433px;font-family:'Montserrat Black';-inkscape-font-specification:Montserrat-Black;writing-mode:lr-tb;fill:#00adee;fill-opacity:1;fill-rule:nonzero;stroke:none"
       id="text72"
       x="643.39935"
       y="-410.07788"><tspan
         x="643.39935 664.51929 673.29504 692.45898 712.52161 731.68555 752.83197 773.47614"
         y="-410.07788"
         sodipodi:role="line"
         id="tspan70">AIRDRONE</tspan></text>
    <text
       xml:space="preserve"
       transform="scale(1,-1)"
       style="font-variant:normal;font-weight:normal;font-stretch:normal;font-size:7.9299px;font-family:Montserrat;-inkscape-font-specification:Montserrat-Regular;writing-mode:lr-tb;fill:#000000;fill-opacity:1;fill-rule:nonzero;stroke:none"
       id="text76"
       x="679.42084"
       y="-398.18781"><tspan
         x="679.42084 684.7735 689.80109 695.64539 698.83325 705.90668 712.63916 715.47809 721.20349 727.19849 733.66138 739.92596 743.11377 749.4339"
         y="-398.18781"
         sodipodi:role="line"
         id="tspan74">FLYING SERVICE</tspan></text>
    <text
       xml:space="preserve"
       transform="scale(1,-1)"
       style="font-variant:normal;font-weight:900;font-stretch:normal;font-size:20px;font-family:'Montserrat Black';-inkscape-font-specification:Montserrat-Black;writing-mode:lr-tb;fill:#00adee;fill-opacity:1;fill-rule:nonzero;stroke:none"
       id="text80"
       x="632.81763"
       y="-53.997562"><tspan
         x="632.81763 648.79761 655.43762 669.93762 685.11761 699.61761 715.61761 731.23761"
         y="-53.997562"
         sodipodi:role="line"
         id="tspan78">AIRDRONE</tspan></text>
    <text
       xml:space="preserve"
       transform="scale(1,-1)"
       style="font-variant:normal;font-weight:normal;font-stretch:normal;font-size:4.4785px;font-family:Montserrat;-inkscape-font-specification:Montserrat-Regular;writing-mode:lr-tb;fill:#000000;fill-opacity:1;fill-rule:nonzero;stroke:none"
       id="text84"
       x="667.3894"
       y="-45.708462"><tspan
         x="667.3894 670.41241 673.25177 676.55243 678.35278 682.3476 686.14984 687.75317 690.98663 694.37238 698.02234 701.56036 703.36072 706.93011"
         y="-45.708462"
         sodipodi:role="line"
         id="tspan82">FLYING SERVICE</tspan></text>
    <g
       id="g94"
       transform="translate(624.37122,165.93224)"
       clip-path="url(#clipPath1898)">
      <path
         d="m 0,0 -2.161,0.591 v 0.526 c 0,0.485 -0.393,0.878 -0.878,0.878 H -3.573 V 3.591 L -0.682,2.807 C -0.455,2.746 -0.228,2.69 0,2.638 Z m 45.149,-15.563 -7.001,2.369 -1.09,-0.492 -0.016,-0.079 v -7.177 l -1.701,7.696 -27.791,9.342 v 0.059 l -5.399,1.997 5.982,-0.827 v 1.944 c 0,0.337 -0.255,0.611 -0.583,0.646 v 2.442 l 10.889,0.754 c 1.855,0.128 3.582,0.99 4.8,2.395 H 7.55 V 6.46 c 0,0.361 -0.293,0.653 -0.654,0.653 H 6.499 V 8.302 L 8.652,7.718 c 1.478,-0.4 3.012,-0.551 4.54,-0.445 l 9.699,0.672 c 1.381,0.095 2.667,0.737 3.574,1.783 H 6.499 v 0.382 c 0,0.451 -0.366,0.817 -0.817,0.817 H 1.868 c -0.451,0 -0.817,-0.366 -0.817,-0.817 V 9.728 h -19.966 c 0.907,-1.046 2.193,-1.688 3.574,-1.783 l 9.699,-0.672 c 1.528,-0.106 3.062,0.045 4.54,0.445 L 1.051,8.302 V 7.113 H 0.654 C 0.293,7.113 0,6.821 0,6.46 V 5.506 h -3.573 v 0.512 c 0,0.606 -0.491,1.098 -1.097,1.098 h -5.121 c -0.606,0 -1.098,-0.492 -1.098,-1.098 V 5.506 H -37.7 c 1.217,-1.405 2.944,-2.267 4.799,-2.395 l 13.025,-0.902 c 2.051,-0.142 4.112,0.06 6.096,0.598 l 2.891,0.784 V 1.995 h -0.533 c -0.485,0 -0.878,-0.393 -0.878,-0.878 v -8.788 c -0.44,-0.048 -0.783,-0.416 -0.783,-0.869 v -2.66 c 0,-0.452 0.343,-0.821 0.783,-0.868 v -1.593 c 0,-0.484 0.393,-0.878 0.878,-0.878 h 0.991 l 1.438,-23.183 c 0.035,-0.458 0.416,-0.812 0.876,-0.812 h 1.773 c 0.459,0 0.841,0.354 0.875,0.812 l 1.438,23.183 h 0.992 c 0.485,0 0.878,0.394 0.878,0.878 v 1.593 c 0.439,0.047 0.783,0.416 0.783,0.868 v 2.66 c 0,0.069 -0.01,0.135 -0.025,0.2 l 3.022,-0.81 0.844,-14.433 c 0.026,-0.341 0.31,-0.605 0.652,-0.605 h 1.32 c 0.342,0 0.627,0.264 0.652,0.605 L 5.829,-10.891 3.083,-8.597 6.045,-9.905 6.121,-10 36.809,-22.488 v -0.09 l 1.227,-1.591 5.43,-2.148 1.63,1.63 h 1.223 v 8.184 l -1.17,0.27 z"
         style="fill:#000000;fill-opacity:1;fill-rule:nonzero;stroke:none"
         id="path96" />
    </g>
    <g
       id="g98"
       transform="translate(735.95532,168.36594)"
       clip-path="url(#clipPath1894)">
      <path
         d="m 0,0 h -0.534 c -0.484,0 -0.878,-0.393 -0.878,-0.878 v -0.525 l -2.161,-0.592 v 2.638 c 0.228,0.052 0.455,0.108 0.682,0.169 L 0,1.596 Z m 7.316,3.511 v 0.513 c 0,0.606 -0.492,1.097 -1.098,1.097 H 1.097 C 0.491,5.121 0,4.63 0,4.024 V 3.511 h -3.573 v 0.954 c 0,0.361 -0.293,0.654 -0.654,0.654 H -4.624 V 6.307 L -2.471,5.724 C -0.993,5.323 0.541,5.173 2.069,5.279 l 9.699,0.671 c 1.381,0.096 2.667,0.737 3.574,1.784 H -4.624 v 0.381 c 0,0.451 -0.366,0.817 -0.817,0.817 h -3.814 c -0.451,0 -0.817,-0.366 -0.817,-0.817 V 7.734 h -19.966 c 0.907,-1.047 2.193,-1.688 3.574,-1.784 l 9.699,-0.671 c 1.528,-0.106 3.062,0.044 4.54,0.445 l 2.153,0.583 V 5.119 h -0.397 c -0.361,0 -0.654,-0.293 -0.654,-0.654 V 3.511 h -15.689 c 1.218,-1.404 2.945,-2.266 4.8,-2.395 l 10.889,-0.754 v -2.441 c -0.327,-0.036 -0.583,-0.31 -0.583,-0.647 v -1.981 c 0,-0.146 0.054,-0.275 0.135,-0.383 l 5.847,0.808 -5.557,-2.055 -0.813,-0.034 -26.806,-9.244 -1.715,-7.761 v 7.177 l -0.016,0.079 -1.09,0.492 -7.001,-2.368 v -0.671 l -1.17,-0.27 v -8.184 h 1.223 l 1.63,-1.629 5.43,2.148 1.227,1.59 v 0.137 l 30.929,12.855 0.014,-0.24 2.783,1.229 -2.722,-2.273 0.718,-12.274 c 0.025,-0.341 0.31,-0.605 0.652,-0.605 h 1.32 c 0.342,0 0.626,0.264 0.652,0.605 l 0.844,14.433 3.022,0.81 c -0.015,-0.064 -0.025,-0.131 -0.025,-0.199 v -2.661 c 0,-0.452 0.344,-0.82 0.783,-0.868 v -1.592 c 0,-0.485 0.394,-0.878 0.878,-0.878 h 0.992 l 1.438,-23.184 c 0.034,-0.457 0.416,-0.811 0.875,-0.811 h 1.774 c 0.459,0 0.84,0.354 0.875,0.811 l 1.438,23.184 h 0.991 c 0.485,0 0.878,0.393 0.878,0.878 v 1.592 c 0.44,0.048 0.783,0.416 0.783,0.868 v 2.661 c 0,0.452 -0.343,0.82 -0.783,0.868 v 8.788 C 8.727,-0.393 8.334,0 7.849,0 H 7.316 v 1.596 l 2.891,-0.784 c 1.984,-0.537 4.045,-0.74 6.096,-0.598 l 13.025,0.902 c 1.855,0.129 3.582,0.991 4.799,2.395 z"
         style="fill:#000000;fill-opacity:1;fill-rule:nonzero;stroke:none"
         id="path100" />
    </g>
    <g
       id="g102"
       transform="translate(687.77532,111.46904)"
       clip-path="url(#clipPath1890)">
      <path
         d="m 0,0 c 0.117,-0.454 -0.225,-0.896 -0.694,-0.896 h -3.745 c 0.001,0.006 0.001,0.013 0.001,0.02 l 2.58,2.58 0.119,0.118 0.53,2.85 z m -9.399,-3.501 c -1.6,0 -2.897,1.297 -2.897,2.897 0,1.6 1.297,2.898 2.897,2.898 1.601,0 2.898,-1.298 2.898,-2.898 0,-1.6 -1.297,-2.897 -2.898,-2.897 m -8.704,2.605 c -0.469,0 -0.811,0.442 -0.694,0.896 l 1.209,4.672 0.53,-2.85 0.119,-0.118 2.58,-2.58 c 0,-0.007 0,-0.014 10e-4,-0.02 z M 1.952,21.648 -4.83,11.537 c -0.122,-0.183 -0.327,-0.292 -0.546,-0.292 h -8.045 c -0.219,0 -0.424,0.109 -0.546,0.292 l -6.782,10.111 2.357,-12.662 c -1.04,-3.747 -2.694,-9.59 -2.694,-9.59 v -0.599 c 0,-0.8 0.649,-1.449 1.449,-1.449 h 5.709 c 0.781,-1.724 2.513,-2.926 4.529,-2.926 2.017,0 3.749,1.202 4.53,2.926 H 0.84 c 0.8,0 1.449,0.649 1.449,1.449 v 0.599 c 0,0 -1.654,5.843 -2.694,9.59 z"
         style="fill:#000000;fill-opacity:1;fill-rule:nonzero;stroke:none"
         id="path104" />
    </g>
    <g
       id="g106"
       transform="translate(683.38022,138.99744)"
       clip-path="url(#clipPath1886)">
      <path
         d="m 0,0 c 0,-0.523 -0.428,-0.951 -0.951,-0.951 -0.523,0 -0.951,0.428 -0.951,0.951 v 6.624 c 0,0.523 0.428,0.951 0.951,0.951 C -0.428,7.575 0,7.147 0,6.624 Z m -4.052,0 c 0,-0.523 -0.428,-0.951 -0.951,-0.951 -0.524,0 -0.952,0.428 -0.952,0.951 v 6.624 c 0,0.523 0.428,0.951 0.952,0.951 0.523,0 0.951,-0.428 0.951,-0.951 z m -4.053,0 c 0,-0.523 -0.428,-0.951 -0.951,-0.951 -0.523,0 -0.951,0.428 -0.951,0.951 v 6.624 c 0,0.523 0.428,0.951 0.951,0.951 0.523,0 0.951,-0.428 0.951,-0.951 z m 13.504,10.163 1.238,2.094 v 0.15 l -4.24,5.108 -2.185,-4.383 c 0,0 0.832,3.019 1.334,4.823 h -13.099 c 0.502,-1.804 1.334,-4.823 1.334,-4.823 l -2.185,4.383 -4.24,-5.108 v -0.15 l 1.238,-2.094 c 0.168,-0.165 0.263,-0.391 0.263,-0.627 V 4.089 c 0,-0.236 -0.095,-0.462 -0.263,-0.627 L -16.38,1.63 c -0.169,-0.165 -0.264,-0.391 -0.264,-0.627 v -3.329 l 4.206,1.223 -4.206,-1.936 v -0.044 l 7.66,-11.423 1.483,5.794 -0.682,-6.254 h 6.359 l -0.682,6.254 1.483,-5.794 7.66,11.423 v 0.044 l -4.205,1.936 4.205,-1.223 v 3.329 c 0,0.236 -0.095,0.462 -0.263,0.627 L 5.4,3.462 C 5.231,3.627 5.136,3.853 5.136,4.089 v 5.447 c 0,0.236 0.095,0.462 0.263,0.627"
         style="fill:#000000;fill-opacity:1;fill-rule:nonzero;stroke:none"
         id="path108" />
    </g>
    <g
       id="g110"
       transform="translate(654.32352,84.663339)"
       clip-path="url(#clipPath1882)">
      <path
         d="M 0,0 V -2.765 H -32.956 C -33.448,-1.87 -33.9,-0.948 -34.299,0 Z"
         style="fill:#000000;fill-opacity:1;fill-rule:nonzero;stroke:none"
         id="path112" />
    </g>
    <g
       id="g114"
       transform="translate(736.73032,84.663339)"
       clip-path="url(#clipPath1878)">
      <path
         d="M 0,0 C -0.404,-0.948 -0.852,-1.87 -1.343,-2.765 H -34.299 V 0 Z"
         style="fill:#000000;fill-opacity:1;fill-rule:nonzero;stroke:none"
         id="path116" />
    </g>
    <g
       id="g118"
       transform="translate(692.43082,109.48274)">
      <path
         d="M 0,0 V 2.765 H 42.956 C 43.448,1.87 43.9,0.948 44.299,0 Z"
         style="fill:#000000;fill-opacity:1;fill-rule:nonzero;stroke:none"
         id="path120" />
    </g>
    <g
       id="g122"
       transform="translate(620.02402,109.48274)">
      <path
         d="M 0,0 C 0.404,0.948 0.852,1.87 1.343,2.765 H 44.299 V 0 Z"
         style="fill:#000000;fill-opacity:1;fill-rule:nonzero;stroke:none"
         id="path124" />
    </g>
    <g
       id="g2088"
       transform="matrix(1,0,0,1.079699,2.3809525,-36.462816)"
       style="fill:#550000">
      <g
         id="g126"
         transform="translate(165.29994,387.02784)"
         clip-path="url(#clipPath1874)"
         style="fill:#550000">
        <path
           d="m 0,0 -0.904,0.247 v 0.22 c 0,0.203 -0.165,0.368 -0.368,0.368 h -0.223 v 0.667 l 1.21,-0.328 C -0.191,1.149 -0.095,1.125 0,1.103 Z m 18.888,-6.511 -2.929,0.991 -0.455,-0.206 -0.007,-0.033 v -3.002 l -0.712,3.219 -11.626,3.909 v 0.024 L 0.9,-0.773 3.403,-1.119 v 0.813 c 0,0.141 -0.107,0.256 -0.244,0.271 V 0.986 L 7.714,1.302 C 8.49,1.355 9.213,1.716 9.722,2.304 H 3.159 v 0.399 c 0,0.151 -0.123,0.273 -0.274,0.273 H 2.719 V 3.473 L 3.62,3.229 C 4.238,3.062 4.88,2.999 5.519,3.043 l 4.058,0.281 c 0.577,0.04 1.116,0.308 1.495,0.746 H 2.719 v 0.16 c 0,0.188 -0.153,0.341 -0.342,0.341 H 0.782 C 0.593,4.571 0.44,4.418 0.44,4.23 V 4.07 H -7.913 C -7.534,3.632 -6.996,3.364 -6.418,3.324 L -2.36,3.043 c 0.639,-0.044 1.281,0.019 1.899,0.186 L 0.44,3.473 V 2.976 H 0.274 C 0.122,2.976 0,2.854 0,2.703 V 2.304 h -1.495 v 0.214 c 0,0.253 -0.205,0.459 -0.459,0.459 h -2.142 c -0.254,0 -0.459,-0.206 -0.459,-0.459 V 2.304 h -11.217 c 0.509,-0.588 1.232,-0.949 2.008,-1.002 l 5.449,-0.378 c 0.858,-0.059 1.72,0.025 2.55,0.25 l 1.21,0.328 V 0.835 h -0.224 c -0.202,0 -0.367,-0.165 -0.367,-0.368 v -3.676 c -0.184,-0.02 -0.327,-0.174 -0.327,-0.364 v -1.113 c 0,-0.189 0.143,-0.343 0.327,-0.363 v -0.666 c 0,-0.203 0.165,-0.367 0.367,-0.367 h 0.415 l 0.602,-9.699 c 0.014,-0.192 0.174,-0.34 0.366,-0.34 h 0.742 c 0.192,0 0.352,0.148 0.366,0.34 l 0.602,9.699 h 0.414 c 0.203,0 0.368,0.164 0.368,0.367 v 0.666 c 0.184,0.02 0.327,0.174 0.327,0.363 v 1.113 c 0,0.029 -0.004,0.057 -0.01,0.084 L 0.677,-3.828 1.03,-9.866 c 0.011,-0.143 0.13,-0.253 0.273,-0.253 h 0.553 c 0.143,0 0.262,0.11 0.272,0.253 l 0.311,5.31 -1.149,0.959 1.239,-0.547 0.032,-0.04 12.838,-5.224 v -0.038 l 0.514,-0.665 2.271,-0.899 0.682,0.682 h 0.512 v 3.424 l -0.49,0.113 z"
           style="fill:#550000;fill-opacity:1;fill-rule:nonzero;stroke:none"
           id="path128" />
      </g>
      <g
         id="g130"
         transform="translate(211.98204,388.04604)"
         clip-path="url(#clipPath1870)"
         style="fill:#550000">
        <path
           d="m 0,0 h -0.223 c -0.203,0 -0.368,-0.164 -0.368,-0.367 v -0.22 l -0.904,-0.248 v 1.104 c 0.096,0.022 0.191,0.045 0.285,0.071 L 0,0.668 Z m 3.061,1.469 v 0.214 c 0,0.254 -0.206,0.459 -0.46,0.459 H 0.459 C 0.206,2.142 0,1.937 0,1.683 V 1.469 h -1.495 v 0.399 c 0,0.151 -0.122,0.273 -0.273,0.273 H -1.935 V 2.639 L -1.034,2.395 C -0.416,2.227 0.226,2.164 0.865,2.208 l 4.058,0.281 c 0.578,0.04 1.116,0.309 1.495,0.746 h -8.353 v 0.16 c 0,0.189 -0.153,0.342 -0.341,0.342 h -1.596 c -0.189,0 -0.342,-0.153 -0.342,-0.342 v -0.16 h -8.353 c 0.38,-0.437 0.918,-0.706 1.496,-0.746 l 4.057,-0.281 c 0.639,-0.044 1.281,0.019 1.9,0.187 l 0.9,0.244 V 2.141 H -4.38 c -0.151,0 -0.273,-0.122 -0.273,-0.273 V 1.469 h -6.564 c 0.51,-0.588 1.232,-0.948 2.008,-1.002 L -4.653,0.152 V -0.87 C -4.79,-0.885 -4.897,-1 -4.897,-1.14 v -0.829 c 0,-0.061 0.022,-0.115 0.056,-0.161 l 2.446,0.339 -2.325,-0.86 -0.34,-0.014 -11.214,-3.868 -0.718,-3.246 v 3.002 l -0.006,0.033 -0.456,0.206 -2.929,-0.991 v -0.28 l -0.49,-0.113 v -3.424 h 0.512 l 0.682,-0.682 2.271,0.899 0.514,0.665 v 0.057 l 12.939,5.378 0.006,-0.1 1.164,0.514 -1.138,-0.951 0.3,-5.135 c 0.011,-0.142 0.13,-0.253 0.273,-0.253 h 0.552 c 0.143,0 0.262,0.111 0.273,0.253 l 0.353,6.038 1.264,0.339 c -0.006,-0.027 -0.01,-0.054 -0.01,-0.083 V -5.52 c 0,-0.189 0.144,-0.343 0.327,-0.363 V -6.55 c 0,-0.202 0.165,-0.367 0.368,-0.367 h 0.415 l 0.601,-9.699 c 0.015,-0.191 0.174,-0.339 0.366,-0.339 h 0.742 c 0.192,0 0.352,0.148 0.366,0.339 l 0.602,9.699 h 0.415 c 0.203,0 0.367,0.165 0.367,0.367 v 0.667 c 0.184,0.02 0.328,0.174 0.328,0.363 v 1.113 c 0,0.189 -0.144,0.343 -0.328,0.363 v 3.677 C 3.651,-0.164 3.487,0 3.284,0 H 3.061 V 0.668 L 4.27,0.34 C 5.1,0.115 5.962,0.03 6.82,0.09 l 5.45,0.377 c 0.775,0.054 1.498,0.414 2.007,1.002 z"
           style="fill:#550000;fill-opacity:1;fill-rule:nonzero;stroke:none"
           id="path132" />
      </g>
      <g
         id="g134"
         transform="translate(191.82564,364.24274)"
         clip-path="url(#clipPath1866)"
         style="fill:#550000">
        <path
           d="m 0,0 c 0.049,-0.19 -0.094,-0.375 -0.29,-0.375 h -1.567 c 0,0.003 0,0.006 0,0.008 l 1.08,1.08 0.049,0.049 0.222,1.192 z m -3.932,-1.465 c -0.669,0 -1.212,0.543 -1.212,1.212 0,0.67 0.543,1.213 1.212,1.213 0.669,0 1.212,-0.543 1.212,-1.213 0,-0.669 -0.543,-1.212 -1.212,-1.212 m -3.642,1.09 c -0.196,0 -0.339,0.185 -0.29,0.375 l 0.506,1.954 0.222,-1.192 0.049,-0.049 1.08,-1.08 c 0,-0.002 0,-0.005 0,-0.008 z M 0.817,9.057 -2.02,4.826 C -2.072,4.75 -2.157,4.704 -2.249,4.704 h -3.366 c -0.092,0 -0.177,0.046 -0.228,0.122 L -8.68,9.057 -7.694,3.759 C -8.13,2.192 -8.822,-0.253 -8.822,-0.253 v -0.25 c 0,-0.335 0.272,-0.607 0.607,-0.607 h 2.388 c 0.327,-0.721 1.052,-1.224 1.895,-1.224 0.844,0 1.568,0.503 1.895,1.224 h 2.388 c 0.335,0 0.607,0.272 0.607,0.607 v 0.25 c 0,0 -0.692,2.445 -1.128,4.012 z"
           style="fill:#550000;fill-opacity:1;fill-rule:nonzero;stroke:none"
           id="path136" />
      </g>
      <g
         id="g138"
         transform="translate(189.98684,375.75944)"
         clip-path="url(#clipPath1862)"
         style="fill:#550000">
        <path
           d="m 0,0 c 0,-0.219 -0.179,-0.398 -0.398,-0.398 -0.219,0 -0.398,0.179 -0.398,0.398 v 2.771 c 0,0.219 0.179,0.398 0.398,0.398 C -0.179,3.169 0,2.99 0,2.771 Z m -1.695,0 c 0,-0.219 -0.179,-0.398 -0.398,-0.398 -0.219,0 -0.398,0.179 -0.398,0.398 v 2.771 c 0,0.219 0.179,0.398 0.398,0.398 0.219,0 0.398,-0.179 0.398,-0.398 z m -1.696,0 c 0,-0.219 -0.179,-0.398 -0.398,-0.398 -0.218,0 -0.397,0.179 -0.397,0.398 v 2.771 c 0,0.219 0.179,0.398 0.397,0.398 0.219,0 0.398,-0.179 0.398,-0.398 z m 5.65,4.252 0.518,0.876 V 5.19 L 1.003,7.327 0.089,5.494 c 0,0 0.348,1.263 0.558,2.018 h -5.48 c 0.21,-0.755 0.558,-2.018 0.558,-2.018 L -5.189,7.327 -6.963,5.19 V 5.128 l 0.518,-0.876 c 0.07,-0.069 0.11,-0.164 0.11,-0.262 V 1.711 c 0,-0.099 -0.04,-0.194 -0.11,-0.263 L -6.853,0.682 C -6.923,0.613 -6.963,0.518 -6.963,0.42 v -1.393 l 1.759,0.511 -1.759,-0.809 V -1.29 l 3.205,-4.779 0.62,2.424 -0.285,-2.616 h 2.66 l -0.286,2.616 0.621,-2.423 3.205,4.778 v 0.019 l -1.76,0.809 1.76,-0.511 V 0.42 c 0,0.098 -0.04,0.193 -0.111,0.262 L 2.259,1.448 C 2.188,1.517 2.149,1.612 2.149,1.711 V 3.99 c 0,0.098 0.039,0.193 0.11,0.262"
           style="fill:#550000;fill-opacity:1;fill-rule:nonzero;stroke:none"
           id="path140" />
      </g>
    </g>
    <text
       xml:space="preserve"
       transform="scale(1,-1)"
       style="font-variant:normal;font-weight:900;font-stretch:normal;font-size:25.7088px;font-family:'Montserrat Black';-inkscape-font-specification:Montserrat-Black;writing-mode:lr-tb;fill:#f15a24;fill-opacity:1;fill-rule:nonzero;stroke:none"
       id="text144"
       x="363.45215"
       y="-420.0307"><tspan
         x="363.45215 383.99347 392.52881 411.16769 430.68066 449.31952 469.88657 489.96515"
         y="-420.0307"
         sodipodi:role="line"
         id="tspan142">AIRDRONE</tspan></text>
    <text
       xml:space="preserve"
       transform="scale(1.0351034,-0.96608709)"
       style="font-variant:normal;font-weight:normal;font-stretch:normal;font-size:7.98334px;font-family:Montserrat;-inkscape-font-specification:Montserrat-Regular;writing-mode:lr-tb;fill:#550000;fill-opacity:1;fill-rule:nonzero;stroke:none;stroke-width:1.0351"
       id="text148"
       x="152.23769"
       y="-353.30502"><tspan
         x="152.23769 157.62643 162.68788 168.57159 171.78088 178.90202 185.67989"
         y="-353.30502"
         sodipodi:role="line"
         id="tspan146"
         style="font-style:normal;font-variant:normal;font-weight:bold;font-stretch:normal;font-family:'Century Gothic';-inkscape-font-specification:'Century Gothic Bold';stroke-width:1.0351;fill:#550000">FLYING INVESTIGATOR</tspan></text>
    <path
       d="m 318.65362,377.30824 h -94.46428 v 4.129 h 94.46428 z"
       style="fill:#000000;fill-opacity:1;fill-rule:nonzero;stroke:none;stroke-width:0.932007"
       id="path158" />
    <path
       d="m 318.17743,341.84624 h -65.25404 v 4.129 h 65.25404 z"
       style="fill:#000000;fill-opacity:1;fill-rule:nonzero;stroke:none;stroke-width:0.982239"
       id="path160" />
    <text
       xml:space="preserve"
       transform="scale(1.0438468,-0.95799498)"
       style="font-variant:normal;font-weight:900;font-stretch:normal;font-size:29.9748px;font-family:'Montserrat Black';-inkscape-font-specification:Montserrat-Black;writing-mode:lr-tb;fill:#00adee;fill-opacity:1;fill-rule:nonzero;stroke:none;stroke-width:1.16594"
       id="text164"
       x="212.08905"
       y="-369.58536"><tspan
         sodipodi:role="line"
         id="tspan162"
         x="212.08905"
         y="-369.58536"
         style="stroke-width:1.16594">HCorg</tspan></text>
    <text
       xml:space="preserve"
       transform="scale(1,-1)"
       style="font-variant:normal;font-weight:normal;font-stretch:normal;font-size:7.7126px;font-family:Montserrat;-inkscape-font-specification:Montserrat-Regular;writing-mode:lr-tb;fill:#000000;fill-opacity:1;fill-rule:nonzero;stroke:none"
       id="text168"
       x="169.99287"
       y="-207.5139"><tspan
         x="169.99287 175.19887 180.08867 185.77284 188.87332 195.75296 202.30095 205.06206 210.63055 216.46129 222.74782 228.84079 231.94125 238.0882"
         y="-207.5139"
         sodipodi:role="line"
         id="tspan166">FLYING SERVICE</tspan></text>
    <g
       id="g178"
       transform="translate(175.54561,249.558)"
       clip-path="url(#clipPath1968)">
      <path
         d="m 0,0 h 0.93 10.139 l -0.85,3.008 H 1.427 -0.161 l 1.696,0.25 0.014,0.031 C 1.561,3.319 1.57,3.35 1.574,3.382 L 1.645,3.965 C 2.033,3.92 2.425,3.911 2.816,3.942 L 7.619,4.319 C 8.303,4.373 8.94,4.733 9.389,5.321 H 2.548 v 2.056 c 0,0.142 -0.115,0.258 -0.258,0.258 H 2.119 v 0.404 l 1.04,-0.32 C 3.673,7.561 4.206,7.502 4.737,7.544 L 8.109,7.809 C 8.59,7.846 9.037,8.099 9.352,8.512 H 2.119 v 0.122 c 0,0.142 -0.115,0.258 -0.258,0.258 h -2.916 c -0.142,0 -0.258,-0.116 -0.258,-0.258 V 8.512 H -8.545 C -8.23,8.099 -7.783,7.846 -7.303,7.809 l 3.372,-0.265 c 0.531,-0.042 1.064,0.017 1.578,0.175 l 1.04,0.32 V 7.635 h -0.171 c -0.142,0 -0.258,-0.116 -0.258,-0.258 V 5.862 h -3.693 c -0.202,0 -0.367,-0.165 -0.367,-0.368 V 5.321 h -10.303 c 0.449,-0.588 1.086,-0.948 1.77,-1.002 l 4.803,-0.377 c 0.757,-0.06 1.516,0.025 2.248,0.25 l 1.482,0.455 V 4.071 h -0.244 c -0.202,0 -0.367,-0.164 -0.367,-0.367 v -4.009 c 0,-0.203 0.165,-0.368 0.367,-0.368 h 0.861 l 0.16,-1.314 c 0.005,-0.045 0.017,-0.09 0.035,-0.132 l 0.842,-1.94 c 0.026,-0.059 0.04,-0.124 0.04,-0.189 v -16.26 c 0,-0.262 0.212,-0.474 0.474,-0.474 h 0.276 0.277 c 0.262,0 0.474,0.212 0.474,0.474 v 16.26 c 0,0.065 0.013,0.13 0.039,0.189 l 0.842,1.94 c 0.018,0.042 0.03,0.087 0.036,0.132 l 0.16,1.314 h 0.86 c 0.203,0 0.367,0.165 0.367,0.368 V 0 l 0.188,1.374 V 0.035 L -0.124,0 v -12.107 c 0,-0.184 0.149,-0.333 0.333,-0.333 h 0.194 0.194 c 0.184,0 0.333,0.149 0.333,0.333 v 11.866 z"
         style="fill:#000000;fill-opacity:1;fill-rule:nonzero;stroke:none"
         id="path180" />
    </g>
    <g
       id="g182"
       transform="translate(220.06751,249.558)"
       clip-path="url(#clipPath1964)">
      <path
         d="m 0,0 h -0.93 -10.139 l 0.85,3.008 h 8.792 1.588 l -1.696,0.25 -0.014,0.031 C -1.561,3.319 -1.57,3.35 -1.574,3.382 L -1.645,3.965 C -2.033,3.92 -2.425,3.911 -2.816,3.942 l -4.803,0.377 c -0.684,0.054 -1.321,0.414 -1.77,1.002 h 6.841 v 2.056 c 0,0.142 0.116,0.258 0.258,0.258 h 0.171 v 0.404 l -1.04,-0.32 C -3.673,7.561 -4.206,7.502 -4.737,7.544 l -3.372,0.265 c -0.481,0.037 -0.928,0.29 -1.243,0.703 h 7.233 v 0.122 c 0,0.142 0.115,0.258 0.258,0.258 h 2.916 c 0.142,0 0.258,-0.116 0.258,-0.258 V 8.512 H 8.545 C 8.23,8.099 7.783,7.846 7.303,7.809 L 3.931,7.544 C 3.4,7.502 2.867,7.561 2.353,7.719 l -1.04,0.32 V 7.635 h 0.171 c 0.142,0 0.258,-0.116 0.258,-0.258 V 5.862 h 3.693 c 0.202,0 0.367,-0.165 0.367,-0.368 V 5.321 H 16.105 C 15.656,4.733 15.019,4.373 14.335,4.319 L 9.532,3.942 C 8.775,3.882 8.016,3.967 7.284,4.192 L 5.802,4.647 V 4.071 h 0.244 c 0.202,0 0.367,-0.164 0.367,-0.367 v -4.009 c 0,-0.203 -0.165,-0.368 -0.367,-0.368 H 5.185 L 5.025,-1.987 C 5.02,-2.032 5.008,-2.077 4.99,-2.119 L 4.148,-4.059 C 4.122,-4.118 4.108,-4.183 4.108,-4.248 v -16.26 c 0,-0.262 -0.212,-0.474 -0.474,-0.474 H 3.358 3.081 c -0.262,0 -0.474,0.212 -0.474,0.474 v 16.26 c 0,0.065 -0.013,0.13 -0.039,0.189 l -0.842,1.94 C 1.708,-2.077 1.696,-2.032 1.69,-1.987 L 1.53,-0.673 H 0.67 c -0.203,0 -0.367,0.165 -0.367,0.368 L 0.303,0 0.115,1.374 V 0.035 L 0.124,0 v -12.107 c 0,-0.184 -0.149,-0.333 -0.333,-0.333 h -0.194 -0.194 c -0.184,0 -0.333,0.149 -0.333,0.333 v 11.866 z"
         style="fill:#000000;fill-opacity:1;fill-rule:nonzero;stroke:none"
         id="path184" />
    </g>
    <g
       id="g186"
       transform="translate(197.80661,240.4673)"
       clip-path="url(#clipPath1960)">
      <path
         d="m 0,0 c -0.969,0 -1.754,0.785 -1.754,1.754 0,0.968 0.785,1.753 1.754,1.753 0.969,0 1.754,-0.785 1.754,-1.753 C 1.754,0.785 0.969,0 0,0 m -4.816,5.476 0.791,-3.722 h 1.014 v 0 c 0,-1.663 1.348,-3.011 3.011,-3.011 1.663,0 3.011,1.348 3.011,3.011 v 0 h 1.014 l 0.791,3.722 z"
         style="fill:#000000;fill-opacity:1;fill-rule:nonzero;stroke:none"
         id="path188" />
    </g>
    <g
       id="g190"
       transform="translate(199.89981,249.9558)"
       clip-path="url(#clipPath1956)">
      <path
         d="m 0,0 c 0,-0.219 -0.179,-0.398 -0.398,-0.398 -0.219,0 -0.398,0.179 -0.398,0.398 v 2.771 c 0,0.219 0.179,0.398 0.398,0.398 C -0.179,3.169 0,2.99 0,2.771 Z m -1.695,0 c 0,-0.219 -0.179,-0.398 -0.398,-0.398 -0.219,0 -0.398,0.179 -0.398,0.398 v 2.771 c 0,0.219 0.179,0.398 0.398,0.398 0.219,0 0.398,-0.179 0.398,-0.398 z m -1.696,0 c 0,-0.219 -0.179,-0.398 -0.398,-0.398 -0.218,0 -0.397,0.179 -0.397,0.398 v 2.771 c 0,0.219 0.179,0.398 0.397,0.398 0.219,0 0.398,-0.179 0.398,-0.398 z M 8.644,3.227 6.642,3.781 4.253,5.999 H 3.835 L 1.824,3.169 3.373,5.999 3.374,6.001 2.597,6.956 h -9.38 L -7.561,6.001 -7.56,5.999 -6.011,3.169 -8.022,5.999 H -8.439 L -10.828,3.781 -12.83,3.227 -13.441,2.616 v -3.02 l 0.618,-0.618 3.339,-0.584 2.418,-1.813 h 1.017 l 0.202,2.008 0.302,-2.008 -0.003,-0.004 0.002,-0.008 H 1.36 l 10e-4,0.008 -0.002,0.004 0.301,2.008 0.202,-2.008 H 2.88 l 2.418,1.813 3.339,0.584 0.618,0.618 v 3.02 z"
         style="fill:#000000;fill-opacity:1;fill-rule:nonzero;stroke:none"
         id="path192" />
    </g>
    <path
       d="m 333.80499,243.9749 h -99.70238 v 4.129 h 99.70238 z"
       style="fill:#000000;fill-opacity:1;fill-rule:nonzero;stroke:none;stroke-width:0.957499"
       id="path194" />
    <path
       d="M 332.85261,208.5129 H 245.6938 v 4.129 h 87.15881 z"
       style="fill:#000000;fill-opacity:1;fill-rule:nonzero;stroke:none;stroke-width:1.1352"
       id="path196" />
    <g
       id="g198"
       transform="translate(893.60699,73.220099)"
       clip-path="url(#clipPath1952)">
      <path
         d="m 0,0 c -2.315,0 -4.192,1.877 -4.192,4.192 0,2.315 1.877,4.192 4.192,4.192 2.315,0 4.192,-1.877 4.192,-4.192 C 4.192,1.877 2.315,0 0,0 M -11.513,26.089 -9.621,4.192 h 2.424 v 0 c 0,-3.975 3.222,-7.197 7.197,-7.197 3.975,0 7.197,3.222 7.197,7.197 v 0 h 2.424 l 1.892,21.897 z"
         style="fill:#000000;fill-opacity:1;fill-rule:nonzero;stroke:none"
         id="path200" />
    </g>
    <g
       id="g202"
       transform="translate(898.61049,109.8211)"
       clip-path="url(#clipPath1948)">
      <path
         d="m 0,0 c 0,-0.523 -0.428,-0.951 -0.951,-0.951 -0.523,0 -0.951,0.428 -0.951,0.951 v 6.624 c 0,0.523 0.428,0.951 0.951,0.951 C -0.428,7.575 0,7.147 0,6.624 Z m -4.052,0 c 0,-0.523 -0.428,-0.951 -0.952,-0.951 -0.523,0 -0.951,0.428 -0.951,0.951 v 6.624 c 0,0.523 0.428,0.951 0.951,0.951 0.524,0 0.952,-0.428 0.952,-0.951 z m -4.053,0 c 0,-0.523 -0.428,-0.951 -0.951,-0.951 -0.523,0 -0.951,0.428 -0.951,0.951 v 6.624 c 0,0.523 0.428,0.951 0.951,0.951 0.523,0 0.951,-0.428 0.951,-0.951 z m 28.766,7.714 -4.785,1.323 -5.711,5.301 H 9.167 L 4.36,7.575 l 3.702,6.763 0.003,0.007 -1.858,2.282 h -22.421 l -1.858,-2.282 0.002,-0.007 3.703,-6.763 -4.807,6.763 h -0.998 l -5.711,-5.301 -4.785,-1.323 -1.461,-1.461 v -7.218 l 1.477,-1.477 7.981,-1.397 5.78,-4.332 h 2.433 l 0.482,4.798 0.721,-4.798 -0.006,-0.01 0.004,-0.02 H 3.25 l 0.004,0.02 -0.006,0.01 0.721,4.798 0.482,-4.798 h 2.433 l 5.78,4.332 7.981,1.397 1.477,1.477 v 7.218 z"
         style="fill:#000000;fill-opacity:1;fill-rule:nonzero;stroke:none"
         id="path204" />
    </g>
    <g
       id="g206"
       transform="translate(874.82439,125.1388)"
       clip-path="url(#clipPath1944)">
      <path
         d="m 0,0 h -31.018 -3.794 l 4.054,0.598 0.032,0.075 c 0.031,0.07 0.051,0.145 0.06,0.221 l 0.17,1.395 c 0.929,-0.109 1.865,-0.13 2.8,-0.056 l 11.481,0.901 c 1.635,0.129 3.158,0.991 4.231,2.396 h -16.353 v 4.914 c 0,0.34 -0.276,0.616 -0.616,0.616 h -0.409 v 0.966 l 2.486,-0.764 c 1.228,-0.377 2.503,-0.519 3.772,-0.42 l 8.06,0.633 c 1.148,0.091 2.217,0.696 2.97,1.682 h -17.288 v 0.291 c 0,0.34 -0.276,0.616 -0.617,0.616 h -6.97 c -0.34,0 -0.616,-0.276 -0.616,-0.616 v -0.291 h -17.289 c 0.754,-0.986 1.822,-1.591 2.97,-1.682 l 8.06,-0.633 c 1.269,-0.099 2.545,0.043 3.773,0.42 l 2.486,0.764 V 11.06 h -0.409 c -0.34,0 -0.616,-0.276 -0.616,-0.616 V 6.822 h -8.828 c -0.485,0 -0.878,-0.393 -0.878,-0.878 V 5.53 h -24.627 c 1.073,-1.405 2.596,-2.267 4.23,-2.396 l 11.482,-0.901 c 1.808,-0.142 3.624,0.06 5.373,0.597 l 3.542,1.089 V 2.542 h -0.582 c -0.485,0 -0.878,-0.393 -0.878,-0.878 v -9.583 c 0,-0.485 0.393,-0.878 0.878,-0.878 h 2.057 l 0.382,-3.142 c 0.013,-0.108 0.042,-0.214 0.085,-0.314 l 2.013,-4.638 c 0.061,-0.143 0.093,-0.296 0.093,-0.451 V -38.21 c 0,-0.626 0.508,-1.133 1.133,-1.133 h 0.661 0.661 c 0.626,0 1.133,0.507 1.133,1.133 v 20.868 c 0,0.155 0.032,0.308 0.094,0.451 l 2.013,4.638 c 0.043,0.1 0.072,0.206 0.085,0.314 l 0.382,3.142 h 2.057 c 0.485,0 0.878,0.393 0.878,0.878 v 0.73 l 0.449,3.284 v -3.201 l -0.021,-0.084 v -18.94 c 0,-0.439 0.356,-0.795 0.795,-0.795 h 0.464 0.464 c 0.44,0 0.796,0.356 0.796,0.795 v 18.366 l -2.223,0.575 h 2.223 24.234 l 5.188,-2.474 6.514,5.931 z"
         style="fill:#000000;fill-opacity:1;fill-rule:nonzero;stroke:none"
         id="path208" />
    </g>
    <g
       id="g210"
       transform="translate(912.38969,125.1388)"
       clip-path="url(#clipPath1940)">
      <path
         d="m 0,0 h 31.018 3.794 l -4.054,0.598 -0.032,0.075 c -0.031,0.07 -0.051,0.145 -0.06,0.221 l -0.17,1.395 C 29.567,2.18 28.631,2.159 27.696,2.233 L 16.215,3.134 C 14.58,3.263 13.057,4.125 11.984,5.53 h 16.353 v 4.914 c 0,0.34 0.276,0.616 0.616,0.616 h 0.409 v 0.966 l -2.486,-0.764 c -1.228,-0.377 -2.503,-0.519 -3.772,-0.42 l -8.06,0.633 c -1.148,0.091 -2.217,0.696 -2.97,1.682 h 17.288 v 0.291 c 0,0.34 0.276,0.616 0.617,0.616 h 6.97 c 0.34,0 0.616,-0.276 0.616,-0.616 V 13.157 H 54.854 C 54.1,12.171 53.032,11.566 51.884,11.475 l -8.06,-0.633 c -1.269,-0.099 -2.545,0.043 -3.773,0.42 l -2.486,0.764 V 11.06 h 0.409 c 0.34,0 0.616,-0.276 0.616,-0.616 V 6.822 h 8.828 c 0.485,0 0.878,-0.393 0.878,-0.878 V 5.53 H 72.923 C 71.85,4.125 70.327,3.263 68.693,3.134 L 57.211,2.233 C 55.403,2.091 53.587,2.293 51.838,2.83 L 48.296,3.919 V 2.542 h 0.582 c 0.485,0 0.878,-0.393 0.878,-0.878 v -9.583 c 0,-0.485 -0.393,-0.878 -0.878,-0.878 h -2.057 l -0.382,-3.142 c -0.013,-0.108 -0.042,-0.214 -0.085,-0.314 l -2.013,-4.638 c -0.061,-0.143 -0.093,-0.296 -0.093,-0.451 V -38.21 c 0,-0.626 -0.508,-1.133 -1.133,-1.133 h -0.661 -0.661 c -0.626,0 -1.133,0.507 -1.133,1.133 v 20.868 c 0,0.155 -0.032,0.308 -0.094,0.451 l -2.013,4.638 c -0.043,0.1 -0.072,0.206 -0.085,0.314 l -0.382,3.142 h -2.057 c -0.485,0 -0.878,0.393 -0.878,0.878 v 0.73 l -0.449,3.284 v -3.201 l 0.021,-0.084 v -18.94 c 0,-0.439 -0.356,-0.795 -0.795,-0.795 H 33.464 33 c -0.44,0 -0.796,0.356 -0.796,0.795 v 18.366 l 2.223,0.575 H 32.204 7.97 l -5.188,-2.474 -6.514,5.931 z"
         style="fill:#000000;fill-opacity:1;fill-rule:nonzero;stroke:none"
         id="path212" />
    </g>
    <text
       xml:space="preserve"
       transform="scale(1,-1)"
       style="font-variant:normal;font-weight:900;font-stretch:normal;font-size:20px;font-family:'Montserrat Black';-inkscape-font-specification:Montserrat-Black;writing-mode:lr-tb;fill:#f15a24;fill-opacity:1;fill-rule:nonzero;stroke:none"
       id="text216"
       x="837.04224"
       y="-53.997562"><tspan
         x="837.04224 853.02222 859.66223 874.16223 889.34222 903.84222 919.84222 935.46222"
         y="-53.997562"
         sodipodi:role="line"
         id="tspan214">AIRDRONE</tspan></text>
    <text
       xml:space="preserve"
       transform="scale(1,-1)"
       style="font-variant:normal;font-weight:normal;font-stretch:normal;font-size:4.4785px;font-family:Montserrat;-inkscape-font-specification:Montserrat-Regular;writing-mode:lr-tb;fill:#000000;fill-opacity:1;fill-rule:nonzero;stroke:none"
       id="text220"
       x="871.58862"
       y="-45.708462"><tspan
         x="871.58862 874.61157 877.45099 880.75165 882.552 886.54681 890.34906 891.95233 895.18585 898.57159 902.22156 905.75958 907.55994 911.12927"
         y="-45.708462"
         sodipodi:role="line"
         id="tspan218">FLYING SERVICE</tspan></text>
    <g
       id="g222"
       transform="translate(540.95241,-18.095239)">
      <g
         id="g224"
         clip-path="url(#clipPath228)">
        <g
           id="g230"
           transform="translate(328.0453,66.5681)">
          <path
             d="M 0,0 V -2.765 H -32.956 C -33.448,-1.87 -33.9,-0.948 -34.299,0 Z"
             style="fill:#000000;fill-opacity:1;fill-rule:nonzero;stroke:none"
             id="path232" />
        </g>
        <g
           id="g234"
           transform="translate(410.4521,66.5681)">
          <path
             d="M 0,0 C -0.404,-0.948 -0.852,-1.87 -1.343,-2.765 H -34.299 V 0 Z"
             style="fill:#000000;fill-opacity:1;fill-rule:nonzero;stroke:none"
             id="path236" />
        </g>
        <g
           id="g238"
           transform="translate(366.1526,91.3875)">
          <path
             d="M 0,0 V 2.765 H 42.956 C 43.448,1.87 43.9,0.948 44.299,0 Z"
             style="fill:#000000;fill-opacity:1;fill-rule:nonzero;stroke:none"
             id="path240" />
        </g>
        <g
           id="g242"
           transform="translate(293.7458,91.3875)">
          <path
             d="M 0,0 C 0.404,0.948 0.852,1.87 1.343,2.765 H 44.299 V 0 Z"
             style="fill:#000000;fill-opacity:1;fill-rule:nonzero;stroke:none"
             id="path244" />
        </g>
      </g>
    </g>
  </g>
</svg>
